<svg xmlns="http://www.w3.org/2000/svg" width="250" height="176.732" viewBox="0 0 250 176.732">
  <g id="Group_4" data-name="Group 4" transform="translate(-387 -295.634)">
    <g id="Group_1" data-name="Group 1">
      <path id="Path_1" data-name="Path 1" d="M446.94,303.375s26.35-1.255,37.015,25.409c0,0,4.078,13.175,13.8,4.392S493.366,283.3,446.94,303.375Z" fill="#202020"/>
      <path id="Path_2" data-name="Path 2" d="M446.7,303.54c-1.938,1.3-4.456,2.134-6.552,3.27a58.326,58.326,0,0,0-6.518,4.061c-6.226,4.524-10.546,10.618-13.665,17.59a56.572,56.572,0,0,0-3.3,9.694,60.963,60.963,0,0,0-1.576,10.194,62.215,62.215,0,0,0,.138,10.314,59.7,59.7,0,0,0,1.841,10.056c.058.212.118.424.178.636,8.02,27.956,49.731,34.254,67.449,12.576a92.123,92.123,0,0,0,6.274-8.366,81.006,81.006,0,0,0,9.691-22.2c-1.986,7.136-6.111,14.17-10.708,19.89C480.09,383.537,465.773,389,450.235,385.8c-8.075-1.666-15.644-4.932-20.984-11.318-6.665-7.97-9.689-18.7-8.959-28.992A50.8,50.8,0,0,1,428.13,321.1,55.342,55.342,0,0,1,446.7,303.54Z" fill="#202020"/>
      <path id="Path_3" data-name="Path 3" d="M500.664,351.37c-.142.37.581,1.841.688,2.212.581,2.025,1.062,4.08,1.467,6.147a73.918,73.918,0,0,1,1.283,19.988,48.768,48.768,0,0,1-19.818,35.458c-8.167,5.984-18.067,10.122-28.344,8.55a17.865,17.865,0,0,1-7.489-2.687,9.655,9.655,0,0,1-4.264-6.518,4.919,4.919,0,0,1,1.4-4.38c2.795-2.361,7.649-.256,10.509.931,3.189,1.325,6.339,3.2,9.743,3.916,10.6,2.236,19.085-.316,24.268-9.856,6.12-11.262,5.783-25.5,4.457-37.834Z" fill="#202020"/>
      <path id="Path_4" data-name="Path 4" d="M598.217,373.485s-15.137,20.093-26.821,7.058c-5.262-5.871-12.234-21.191-24.938-19.3,0,0-10.352,1.52-8.705,11.233,0,0-1.412,9.008,20.939,17.948,0,0,21.409,6.588,33.173-7.528C591.865,382.9,597.041,377.249,598.217,373.485Z" fill="#202020"/>
      <path id="Path_5" data-name="Path 5" d="M598.217,373.484c6.45-10,12.237-20.611,10.542-33.088-1.739-12.8-8.971-24.455-18-33.447-9.759-9.719-24.987-13.114-38.366-10.428-25.927,5.2-37.657,33.239-41.868,56.568-3.589,19.886-2.19,40.385,12.772,55.557,11.325,11.485,28.623,16.951,44.359,13.412,4.077-.917,8.589-2.994,9.533-7.064a7.06,7.06,0,0,0-2.314-6.752,8.466,8.466,0,0,0-7.027-1.782c-4.232.8-7.326,4.33-11.045,6.5-7.941,4.629-18.5,2.525-25.832-3.018-23.541-17.794-23.605-55.362-7.888-78.058a51.36,51.36,0,0,1,11.793-12.224c14.538-10.649,33.548-16.93,49.977-6.515,11.044,7,17.078,20.52,19.256,33.011C605.646,354.972,603.062,365.972,598.217,373.484Z" fill="#202020"/>
    </g>
    <g id="Group_3" data-name="Group 3">
      <g id="Group_2" data-name="Group 2">
        <path id="Path_6" data-name="Path 6" d="M392.748,448.646h16v.614h-.681q-4.252,0-4.252,4.219v11.263a6.791,6.791,0,0,1-1.911,5.1,8.494,8.494,0,0,1-3.139,1.877,12.119,12.119,0,0,1-4,.647,10.756,10.756,0,0,1-3.621-.573,7.051,7.051,0,0,1-2.674-1.636A6.129,6.129,0,0,1,387.4,468.6a3.763,3.763,0,0,1-.4-1.62,3.03,3.03,0,0,1,.9-2.2,2.954,2.954,0,0,1,2.185-.922,2.779,2.779,0,0,1,2.076.814,2.942,2.942,0,0,1-1.428,4.868q-.683.232-.682.5,0,.432.931,1a5.791,5.791,0,0,0,3.056.714,5.857,5.857,0,0,0,2.641-.548,3.851,3.851,0,0,0,1.678-1.587,5.037,5.037,0,0,0,.582-2.5V453.479q0-4.22-4.253-4.219h-1.943Z" fill="#202020"/>
        <path id="Path_7" data-name="Path 7" d="M436.053,463.679h.582a13.778,13.778,0,0,1-.881,2.458,11.307,11.307,0,0,1-1.329,2.043,11.024,11.024,0,0,1-9.02,4.153,13.765,13.765,0,0,1-6.628-1.653,13.059,13.059,0,0,1-4.883-4.451,10.84,10.84,0,0,1-1.1-9.868,12.34,12.34,0,0,1,2.085-3.554,14.118,14.118,0,0,1,3.181-2.833,11.294,11.294,0,0,1,6.329-1.794,11.853,11.853,0,0,1,2.267.208,8.408,8.408,0,0,1,2.027.664,12.194,12.194,0,0,1,1.968,1.2,3.572,3.572,0,0,0,1.662.781q1.179,0,2.956-2.459h.582l.482,11.163h-.549q-.282-1.212-.539-1.977a11.362,11.362,0,0,0-.69-1.6,16.5,16.5,0,0,0-2.708-4.02,11.357,11.357,0,0,0-3.4-2.558,8.7,8.7,0,0,0-3.787-.88,5.666,5.666,0,0,0-3.788,1.237A7.429,7.429,0,0,0,418.7,453.8a26.1,26.1,0,0,0-.706,6.653,30.263,30.263,0,0,0,.249,4.12,12.1,12.1,0,0,0,.772,3.031,6.734,6.734,0,0,0,1.321,2.068,6.442,6.442,0,0,0,2.384,1.52,8.7,8.7,0,0,0,3.064.524,10.906,10.906,0,0,0,2.965-.4,9.894,9.894,0,0,0,2.658-1.188,10.759,10.759,0,0,0,2.268-1.952,10.546,10.546,0,0,0,1.345-1.935A16.337,16.337,0,0,0,436.053,463.679Z" fill="#202020"/>
        <path id="Path_8" data-name="Path 8" d="M439.458,448.646h9.7L457.9,466.4l8.671-17.757h9.153v.614h-.847a3.7,3.7,0,0,0-4.22,4.219v13.505a3.713,3.713,0,0,0,4.22,4.22h.847v.647h-15V471.2h1a3.692,3.692,0,0,0,4.2-4.22V451.2h-.066l-9.967,20.647h-.565L445.239,451.27h-.066v14.967a5.425,5.425,0,0,0,.6,2.649,4.029,4.029,0,0,0,1.761,1.678,6.644,6.644,0,0,0,2.823.64v.647h-10.9V471.2h.233a4.692,4.692,0,0,0,3.522-1.313,4.874,4.874,0,0,0,1.279-3.554V453.479a3.678,3.678,0,0,0-4.22-4.219h-.814Z" fill="#202020"/>
        <path id="Path_9" data-name="Path 9" d="M491.1,448.18h.615l9.335,20.3a6.375,6.375,0,0,0,1.005,1.562,3.341,3.341,0,0,0,1.254.889,4.505,4.505,0,0,0,1.645.274h.614v.647H492.1V471.2h1.76a3.914,3.914,0,0,0,1.919-.358,1.193,1.193,0,0,0,.606-1.1,3.438,3.438,0,0,0-.24-1.13q-.241-.663-1.055-2.408c-.034-.067-.083-.177-.15-.333s-.139-.3-.216-.448l-.382-.847h-9.834l-.747,1.727a4.6,4.6,0,0,0-.366,1.778,3.04,3.04,0,0,0,.424,1.511,2.883,2.883,0,0,0,1.105,1.13,3.17,3.17,0,0,0,.8.357,5.539,5.539,0,0,0,1.022.125v.647H477.3V471.2a6.3,6.3,0,0,0,1.636-.366,5.976,5.976,0,0,0,1.354-.83,13.388,13.388,0,0,0,3.439-5.133Zm-1.761,5.432-4.551,10.349h9.219Z" fill="#202020"/>
        <path id="Path_10" data-name="Path 10" d="M522.548,448.18a16.468,16.468,0,0,1,5.955,1.039,13.3,13.3,0,0,1,4.693,3.031,12.462,12.462,0,0,1,2.591,3.779,10.6,10.6,0,0,1-.938,10.291,13.009,13.009,0,0,1-5.033,4.369,15.206,15.206,0,0,1-6.969,1.611,16,16,0,0,1-5.44-.914,14.113,14.113,0,0,1-4.493-2.583,12.1,12.1,0,0,1-3.032-3.9,10.534,10.534,0,0,1,.789-10.664,13.323,13.323,0,0,1,5.033-4.427A14.65,14.65,0,0,1,522.548,448.18Zm.432.6a7.743,7.743,0,0,0-2.849.524,6.116,6.116,0,0,0-2.251,1.486,9.9,9.9,0,0,0-1.7,2.484,13.053,13.053,0,0,0-1.063,3.206,19.186,19.186,0,0,0-.358,3.812,17.916,17.916,0,0,0,.565,4.659,11.447,11.447,0,0,0,1.628,3.622,7.371,7.371,0,0,0,2.542,2.317,7.205,7.205,0,0,0,7.566-.606,8.788,8.788,0,0,0,2.791-4.012,17.747,17.747,0,0,0,.972-6.2,17.116,17.116,0,0,0-.532-4.352,11.754,11.754,0,0,0-1.528-3.53,7.927,7.927,0,0,0-2.409-2.384,6.162,6.162,0,0,0-1.611-.747A5.937,5.937,0,0,0,522.98,448.778Z" fill="#202020"/>
        <path id="Path_11" data-name="Path 11" d="M539.757,448.646h9.7L558.2,466.4l8.671-17.757h9.153v.614h-.847a3.7,3.7,0,0,0-4.22,4.219v13.505a3.713,3.713,0,0,0,4.22,4.22h.847v.647h-15V471.2h1a3.692,3.692,0,0,0,4.2-4.22V451.2h-.066l-9.967,20.647h-.565L545.538,451.27h-.066v14.967a5.425,5.425,0,0,0,.6,2.649,4.029,4.029,0,0,0,1.761,1.678,6.645,6.645,0,0,0,2.823.64v.647h-10.9V471.2h.233a4.692,4.692,0,0,0,3.522-1.313,4.874,4.874,0,0,0,1.279-3.554V453.479a3.678,3.678,0,0,0-4.22-4.219h-.814Z" fill="#202020"/>
        <path id="Path_12" data-name="Path 12" d="M591.4,448.18h.615l9.335,20.3a6.377,6.377,0,0,0,1.005,1.562,3.341,3.341,0,0,0,1.254.889,4.505,4.505,0,0,0,1.645.274h.614v.647H592.4V471.2h1.76a3.914,3.914,0,0,0,1.919-.358,1.193,1.193,0,0,0,.606-1.1,3.437,3.437,0,0,0-.24-1.13q-.243-.663-1.055-2.408c-.034-.067-.083-.177-.15-.333s-.139-.3-.216-.448l-.382-.847h-9.834l-.747,1.727a4.6,4.6,0,0,0-.366,1.778,3.04,3.04,0,0,0,.424,1.511,2.883,2.883,0,0,0,1.105,1.13,3.169,3.169,0,0,0,.8.357,5.526,5.526,0,0,0,1.022.125v.647H577.6V471.2a6.3,6.3,0,0,0,1.636-.366,5.975,5.975,0,0,0,1.354-.83,13.388,13.388,0,0,0,3.439-5.133Zm-1.761,5.432-4.551,10.349h9.219Z" fill="#202020"/>
        <path id="Path_13" data-name="Path 13" d="M622.847,448.18a16.468,16.468,0,0,1,5.955,1.039,13.292,13.292,0,0,1,4.693,3.031,12.427,12.427,0,0,1,2.591,3.779,10.6,10.6,0,0,1-.938,10.291,13.009,13.009,0,0,1-5.033,4.369,15.2,15.2,0,0,1-6.969,1.611,16,16,0,0,1-5.44-.914,14.113,14.113,0,0,1-4.493-2.583,12.1,12.1,0,0,1-3.032-3.9,10.454,10.454,0,0,1-1.088-4.651,10.562,10.562,0,0,1,1.877-6.013A13.323,13.323,0,0,1,616,449.817,14.65,14.65,0,0,1,622.847,448.18Zm.432.6a7.743,7.743,0,0,0-2.849.524,6.116,6.116,0,0,0-2.251,1.486,9.9,9.9,0,0,0-1.7,2.484,13.053,13.053,0,0,0-1.063,3.206,19.186,19.186,0,0,0-.358,3.812,17.919,17.919,0,0,0,.565,4.659,11.447,11.447,0,0,0,1.628,3.622,7.371,7.371,0,0,0,2.542,2.317,7.205,7.205,0,0,0,7.566-.606,8.788,8.788,0,0,0,2.791-4.012,17.747,17.747,0,0,0,.972-6.2,17.072,17.072,0,0,0-.532-4.352,11.756,11.756,0,0,0-1.528-3.53,7.928,7.928,0,0,0-2.409-2.384,6.162,6.162,0,0,0-1.611-.747A5.937,5.937,0,0,0,623.279,448.778Z" fill="#202020"/>
      </g>
    </g>
  </g>
</svg>
