<svg xmlns="http://www.w3.org/2000/svg" width="30" height="30" viewBox="0 0 30 30">
  <g id="Group_29" data-name="Group 29" transform="translate(-1076 -1580)">
    <g id="Group_13" data-name="Group 13" transform="translate(1083 1494.021)">
      <g id="Group_12" data-name="Group 12" transform="translate(0 95.979)">
        <g id="Group_11" data-name="Group 11" transform="translate(0 0)">
          <path id="Path_24" data-name="Path 24" d="M6.994,100.5a2.545,2.545,0,0,0,.8-.554,2.07,2.07,0,0,0,.486-1.437A2.36,2.36,0,0,0,7.8,97.019a3.34,3.34,0,0,0-2.723-1.04H0v9.754H4.734a7.851,7.851,0,0,0,1.484-.131,3.013,3.013,0,0,0,1.187-.49,2.773,2.773,0,0,0,.744-.767,2.7,2.7,0,0,0,.469-1.555,2.447,2.447,0,0,0-.409-1.429A2.351,2.351,0,0,0,6.994,100.5Zm-4.9-2.826H4.381a4.267,4.267,0,0,1,1.242.152.871.871,0,0,1,.564.9.9.9,0,0,1-.427.856,2.252,2.252,0,0,1-1.111.242H2.094Zm3.616,6.2a2.643,2.643,0,0,1-1.065.172H2.094v-2.6H4.681a2.85,2.85,0,0,1,1.052.164,1.041,1.041,0,0,1,.668,1.047A1.213,1.213,0,0,1,5.71,103.869Z" transform="translate(0 -95.979)" fill="#202020"/>
          <rect id="Rectangle_4" data-name="Rectangle 4" width="4.502" height="1.214" transform="translate(10.864 0.455)" fill="#202020"/>
          <path id="Path_25" data-name="Path 25" d="M287.509,174.075a3.364,3.364,0,0,0-.621-1.491,3.088,3.088,0,0,0-1.341-1.067,4.68,4.68,0,0,0-1.828-.338,3.915,3.915,0,0,0-2.778,1,3.748,3.748,0,0,0-1.07,2.876,3.365,3.365,0,0,0,1.187,2.887,4.436,4.436,0,0,0,2.736.887,3.939,3.939,0,0,0,2.923-1.051,2.326,2.326,0,0,0,.752-1.3H285.4a1.594,1.594,0,0,1-.419.5,1.811,1.811,0,0,1-1.126.33,2.184,2.184,0,0,1-1.121-.272,1.7,1.7,0,0,1-.814-1.521h5.66A8.642,8.642,0,0,0,287.509,174.075Zm-5.541.187a1.907,1.907,0,0,1,.542-1.116,1.693,1.693,0,0,1,1.212-.413,1.876,1.876,0,0,1,1.206.388,1.539,1.539,0,0,1,.541,1.141Z" transform="translate(-270.579 -168.829)" fill="#202020"/>
        </g>
      </g>
    </g>
    <circle id="Ellipse_8" data-name="Ellipse 8" cx="15" cy="15" r="15" transform="translate(1076 1580)" fill="none"/>
  </g>
</svg>
