<svg xmlns="http://www.w3.org/2000/svg" width="30" height="30" viewBox="0 0 30 30">
  <g id="Group_28" data-name="Group 28" transform="translate(-1076 -1537)">
    <path id="Path_20" data-name="Path 20" d="M149.729,391.819l.024-.019.018-.012.025-.016.02-.011.026-.014.021-.009.027-.012.021-.008.029-.009.021-.006.031-.007.02,0,.035,0,.018,0,.053,0h15.725l.053,0,.018,0,.035,0,.02,0,.031.007.021.006.029.009.021.008.028.012.02.009.026.013.019.011.025.016.018.012.024.019.013.01-7.814,7.814a.637.637,0,0,1-.9,0l-7.814-7.814.013-.01Zm-.248,1.578,4.03,4.03-4.03,4.029Zm16.362,9.762H150.129a.635.635,0,0,1-.4-.146l4.685-4.685,2.217,2.217a1.911,1.911,0,0,0,2.7,0l2.228-2.228,4.692,4.693a.637.637,0,0,1-.409.149Zm.638-1.724-4.019-4.019,4.019-4.019Z" transform="translate(933.519 1154.317)" fill="#202020"/>
    <circle id="Ellipse_7" data-name="Ellipse 7" cx="15" cy="15" r="15" transform="translate(1076 1537)" fill="none"/>
  </g>
</svg>
