<svg xmlns="http://www.w3.org/2000/svg" width="30" height="30" viewBox="0 0 30 30">
  <g id="Group_50" data-name="Group 50" transform="translate(-575 -3727)">
    <path id="Path_28" data-name="Path 28" d="M7.973,4.526a3.709,3.709,0,0,1,.009,5.239l-.009.009L6.333,11.414A3.711,3.711,0,0,1,1.085,6.166l.906-.906a.39.39,0,0,1,.666.259,4.5,4.5,0,0,0,.237,1.287.393.393,0,0,1-.092.406l-.32.32a1.758,1.758,0,1,0,2.47,2.5l1.641-1.64a1.757,1.757,0,0,0,0-2.486A1.829,1.829,0,0,0,6.34,5.7a.392.392,0,0,1-.17-.308.972.972,0,0,1,.286-.728l.514-.514a.392.392,0,0,1,.5-.042,3.723,3.723,0,0,1,.5.42Zm3.441-3.441a3.715,3.715,0,0,0-5.248,0L4.526,2.725l-.009.009a3.712,3.712,0,0,0,.51,5.659.392.392,0,0,0,.5-.042l.514-.514a.972.972,0,0,0,.286-.728.392.392,0,0,0-.17-.308,1.829,1.829,0,0,1-.252-.209,1.757,1.757,0,0,1,0-2.486l1.641-1.64a1.758,1.758,0,1,1,2.47,2.5l-.32.32a.393.393,0,0,0-.092.406A4.5,4.5,0,0,1,9.842,6.98a.39.39,0,0,0,.666.259l.906-.906a3.715,3.715,0,0,0,0-5.248Z" transform="translate(584 3736)" fill="#fff"/>
    <g id="Ellipse_14" data-name="Ellipse 14" transform="translate(575 3727)" fill="none" stroke="#fff" stroke-width="1">
      <circle cx="15" cy="15" r="15" stroke="none"/>
      <circle cx="15" cy="15" r="14.5" fill="none"/>
    </g>
  </g>
</svg>
