<svg xmlns="http://www.w3.org/2000/svg" width="80" height="52.928" viewBox="0 0 80 52.928">
  <g id="Group_35" data-name="Group 35" transform="translate(-414.942 -295.634)">
    <path id="Path_1" data-name="Path 1" d="M446.94,300.165a16.257,16.257,0,0,1,15.255,10.472s1.681,5.43,5.688,1.81S466.073,291.891,446.94,300.165Z" transform="translate(-18.811 -1.341)" fill="#202020"/>
    <path id="Path_2" data-name="Path 2" d="M428.033,303.54c-.8.536-1.836.879-2.7,1.348a24.038,24.038,0,0,0-2.686,1.674,17.537,17.537,0,0,0-5.632,7.249,23.314,23.314,0,0,0-1.36,4,25.127,25.127,0,0,0-.65,4.2,25.637,25.637,0,0,0,.057,4.251,24.6,24.6,0,0,0,.759,4.144c.024.087.049.175.073.262,3.305,11.521,20.5,14.117,27.8,5.183a37.968,37.968,0,0,0,2.586-3.448,33.386,33.386,0,0,0,3.994-9.147,23.829,23.829,0,0,1-4.413,8.2,16.181,16.181,0,0,1-16.37,5.992,14.742,14.742,0,0,1-8.648-4.664,16.916,16.916,0,0,1-3.692-11.948,20.934,20.934,0,0,1,3.23-10.051A22.808,22.808,0,0,1,428.033,303.54Z" transform="translate(0 -4.648)" fill="#202020"/>
    <path id="Path_3" data-name="Path 3" d="M467.433,351.37c-.059.152.239.759.284.912.239.835.438,1.681.6,2.533a30.463,30.463,0,0,1,.529,8.238,20.1,20.1,0,0,1-8.167,14.613c-3.366,2.466-7.446,4.171-11.681,3.524a7.363,7.363,0,0,1-3.086-1.107,3.979,3.979,0,0,1-1.757-2.686,2.027,2.027,0,0,1,.576-1.805c1.152-.973,3.152-.106,4.331.384a23.6,23.6,0,0,0,4.015,1.614c4.369.922,7.865-.13,10-4.062,2.522-4.641,2.383-10.508,1.837-15.592Z" transform="translate(-17.163 -32.766)" fill="#202020"/>
    <path id="Path_4" data-name="Path 4" d="M562.567,366.194s-6.238,8.281-11.054,2.909c-2.169-2.42-5.042-8.733-10.278-7.954,0,0-4.266.626-3.588,4.629,0,0-.582,3.712,8.63,7.4,0,0,8.823,2.715,13.671-3.1A14.78,14.78,0,0,0,562.567,366.194Z" transform="translate(-72.093 -38.476)" fill="#202020"/>
    <path id="Path_5" data-name="Path 5" d="M545.692,327.718c2.658-4.122,5.043-8.494,4.345-13.636-.717-5.275-3.7-10.079-7.418-13.784-4.022-4.005-10.3-5.4-15.812-4.3-10.685,2.145-15.519,13.7-17.255,23.313-1.479,8.2-.9,16.644,5.264,22.9a20.052,20.052,0,0,0,18.281,5.527c1.68-.378,3.54-1.234,3.929-2.911a2.91,2.91,0,0,0-.954-2.783,3.489,3.489,0,0,0-2.9-.734c-1.744.328-3.019,1.785-4.552,2.678-3.273,1.908-7.624,1.041-10.646-1.244-9.7-7.333-9.728-22.816-3.251-32.17a21.167,21.167,0,0,1,4.86-5.038c5.992-4.389,13.826-6.977,20.6-2.685,4.552,2.885,7.038,8.457,7.936,13.6A16.988,16.988,0,0,1,545.692,327.718Z" transform="translate(-55.218 0)" fill="#202020"/>
  </g>
</svg>
